<svg width="20" height="20" viewBox="0 0 20 20" fill="none" xmlns="http://www.w3.org/2000/svg">
<path d="M10 0.709015C6.83203 0.709015 4.27344 3.268 4.27344 6.42972V9.25394H6.21094V6.55472C6.21094 4.45706 7.90625 2.75628 10 2.75628C12.0898 2.75628 13.7891 4.50784 13.7891 6.55472V9.25394H15.7266V6.42972C15.7266 3.34612 13.1602 0.709015 10 0.709015ZM3.39453 9.98441C2.82422 10.875 2.5 11.9024 2.5 12.9844C2.5 16.4336 5.82031 19.293 10 19.293C14.1797 19.293 17.5 16.4336 17.5 12.9844C17.5 11.9024 17.1758 10.875 16.6055 9.98441H3.39453Z" fill="black" fill-opacity="0.5"/>
</svg>
