<svg width="17" height="17" viewBox="0 0 17 17" fill="none" xmlns="http://www.w3.org/2000/svg">
<path fill-rule="evenodd" clip-rule="evenodd" d="M8.49993 0.885419C7.60759 0.885419 6.75179 1.2399 6.12081 1.87088C5.48983 2.50187 5.13535 3.35766 5.13535 4.25C5.13535 5.14235 5.48983 5.99814 6.12081 6.62912C6.75179 7.26011 7.60759 7.61459 8.49993 7.61459C9.39228 7.61459 10.2481 7.26011 10.8791 6.62912C11.51 5.99814 11.8645 5.14235 11.8645 4.25C11.8645 3.35766 11.51 2.50187 10.8791 1.87088C10.2481 1.2399 9.39228 0.885419 8.49993 0.885419ZM6.19785 4.25C6.19785 3.63945 6.44039 3.05391 6.87211 2.62218C7.30384 2.19046 7.88938 1.94792 8.49993 1.94792C9.11048 1.94792 9.69603 2.19046 10.1278 2.62218C10.5595 3.05391 10.802 3.63945 10.802 4.25C10.802 4.86055 10.5595 5.4461 10.1278 5.87782C9.69603 6.30955 9.11048 6.55209 8.49993 6.55209C7.88938 6.55209 7.30384 6.30955 6.87211 5.87782C6.44039 5.4461 6.19785 4.86055 6.19785 4.25ZM8.49993 8.67709C6.86156 8.67709 5.35139 9.04967 4.23293 9.67867C3.13076 10.2992 2.30201 11.2384 2.30201 12.3958V12.4681C2.30131 13.2912 2.3006 14.3239 3.20656 15.062C3.6521 15.4247 4.27614 15.6832 5.11906 15.8532C5.96339 16.0246 7.06485 16.1146 8.49993 16.1146C9.93502 16.1146 11.0358 16.0246 11.8815 15.8532C12.7244 15.6832 13.3478 15.4247 13.794 15.062C14.7 14.3239 14.6986 13.2912 14.6979 12.4681V12.3958C14.6979 11.2384 13.8691 10.2992 12.7676 9.67867C11.6485 9.04967 10.139 8.67709 8.49993 8.67709ZM3.36451 12.3958C3.36451 11.793 3.8051 11.1385 4.75356 10.6052C5.68572 10.081 7.00889 9.73959 8.50064 9.73959C9.99098 9.73959 11.3141 10.081 12.2463 10.6052C13.1955 11.1385 13.6354 11.793 13.6354 12.3958C13.6354 13.3223 13.607 13.8437 13.1225 14.2375C12.8604 14.4514 12.4213 14.6604 11.6704 14.812C10.9217 14.9636 9.89818 15.0521 8.49993 15.0521C7.10168 15.0521 6.07743 14.9636 5.32943 14.812C4.5786 14.6604 4.13943 14.4514 3.87735 14.2382C3.39285 13.8437 3.36451 13.3223 3.36451 12.3958Z" fill="black" fill-opacity="0.5"/>
</svg>
