<svg width="20" height="20" viewBox="0 0 20 20" fill="none" xmlns="http://www.w3.org/2000/svg">
<path d="M10 1.25C8.1773 1.25215 6.42987 1.97717 5.14102 3.26602C3.85217 4.55486 3.12715 6.3023 3.125 8.125C3.12333 9.61443 3.60982 11.0634 4.51 12.25C4.51 12.25 4.6975 12.4969 4.72813 12.5325L10 18.75L15.2744 12.5294C15.3019 12.4963 15.49 12.25 15.49 12.25L15.4906 12.2481C16.3902 11.0619 16.8765 9.61372 16.875 8.125C16.8729 6.3023 16.1478 4.55486 14.859 3.26602C13.5701 1.97717 11.8227 1.25215 10 1.25ZM10.625 11.25H9.375V10H10.625V11.25ZM10.625 8.75H9.375V7.5H10.625V8.75ZM13.125 11.25H11.875V6.25H8.125V11.25H6.875V6.25C6.875 5.91848 7.0067 5.60054 7.24112 5.36612C7.47554 5.1317 7.79348 5 8.125 5H11.875C12.2065 5 12.5245 5.1317 12.7589 5.36612C12.9933 5.60054 13.125 5.91848 13.125 6.25V11.25Z" fill="black" fill-opacity="0.5"/>
</svg>
