<svg width="20" height="20" viewBox="0 0 20 20" fill="none" xmlns="http://www.w3.org/2000/svg">
<path d="M10.0002 10.8333C9.74645 10.8304 9.49793 10.9052 9.28803 11.0478C9.07814 11.1903 8.91695 11.3937 8.82617 11.6307C8.7354 11.8676 8.71938 12.1267 8.78029 12.373C8.84119 12.6193 8.97609 12.841 9.16683 13.0083V14.1667C9.16683 14.3877 9.25463 14.5996 9.41091 14.7559C9.56719 14.9122 9.77915 15 10.0002 15C10.2212 15 10.4331 14.9122 10.5894 14.7559C10.7457 14.5996 10.8335 14.3877 10.8335 14.1667V13.0083C11.0242 12.841 11.1591 12.6193 11.22 12.373C11.2809 12.1267 11.2649 11.8676 11.1742 11.6307C11.0834 11.3937 10.9222 11.1903 10.7123 11.0478C10.5024 10.9052 10.2539 10.8304 10.0002 10.8333ZM14.1668 7.5V5.83334C14.1668 4.72827 13.7278 3.66846 12.9464 2.88706C12.165 2.10566 11.1052 1.66667 10.0002 1.66667C8.89509 1.66667 7.83529 2.10566 7.05388 2.88706C6.27248 3.66846 5.8335 4.72827 5.8335 5.83334V7.5C5.17045 7.5 4.53457 7.7634 4.06573 8.23224C3.59689 8.70108 3.3335 9.33696 3.3335 10V15.8333C3.3335 16.4964 3.59689 17.1323 4.06573 17.6011C4.53457 18.0699 5.17045 18.3333 5.8335 18.3333H14.1668C14.8299 18.3333 15.4658 18.0699 15.9346 17.6011C16.4034 17.1323 16.6668 16.4964 16.6668 15.8333V10C16.6668 9.33696 16.4034 8.70108 15.9346 8.23224C15.4658 7.7634 14.8299 7.5 14.1668 7.5ZM7.50016 5.83334C7.50016 5.1703 7.76355 4.53441 8.2324 4.06557C8.70124 3.59673 9.33712 3.33334 10.0002 3.33334C10.6632 3.33334 11.2991 3.59673 11.7679 4.06557C12.2368 4.53441 12.5002 5.1703 12.5002 5.83334V7.5H7.50016V5.83334ZM15.0002 15.8333C15.0002 16.0544 14.9124 16.2663 14.7561 16.4226C14.5998 16.5789 14.3878 16.6667 14.1668 16.6667H5.8335C5.61248 16.6667 5.40052 16.5789 5.24424 16.4226C5.08796 16.2663 5.00016 16.0544 5.00016 15.8333V10C5.00016 9.77899 5.08796 9.56703 5.24424 9.41075C5.40052 9.25447 5.61248 9.16667 5.8335 9.16667H14.1668C14.3878 9.16667 14.5998 9.25447 14.7561 9.41075C14.9124 9.56703 15.0002 9.77899 15.0002 10V15.8333Z" fill="black" fill-opacity="0.5"/>
</svg>
